<?xml version="1.0" encoding="UTF-8"?>
<svg width="101px" height="19px" viewBox="0 0 101 19" version="1.1" xmlns="http://www.w3.org/2000/svg" xmlns:xlink="http://www.w3.org/1999/xlink">
    <!-- Generator: sketchtool 53.2 (72643) - https://sketchapp.com -->
    <title>8E941885-5AEC-48B3-8635-A641524055E4</title>
    <desc>Created with sketchtool.</desc>
    <g id="Symbols" stroke="none" stroke-width="1" fill="none" fill-rule="evenodd">
        <g id="TRUST-PILOT" transform="translate(-17.000000, -16.000000)">
            <g id="RATING-1">
                <g>
                    <g id="5-star" transform="translate(17.000000, 16.000000)">
                        <g>
                            <polygon id="Rectangle-path" fill="#FEFEFE" fill-rule="nonzero" points="0 0 17 0 17 17 0 17"></polygon>
                            <path d="M0,0 L0,19 L19,19 L19,0 L0,0 Z M14.4686192,17.0125523 L9.38075314,13.5146444 L4.37238494,17.0125523 L6.20083682,11.1297071 L1.19246862,7.31380753 L7.39330544,7.31380753 L9.38075314,1.35146444 L11.3682008,7.31380753 L17.5690377,7.31380753 L12.5606695,11.1297071 L14.4686192,17.0125523 Z" id="Shape" fill="#FF7332" fill-rule="nonzero"></path>
                            <polygon id="Rectangle-path" fill="#FEFEFE" fill-rule="nonzero" points="22 0 39 0 39 17 22 17"></polygon>
                            <path d="M21,0 L21,19 L40,19 L40,0 L21,0 Z M35.5481172,17.0125523 L30.460251,13.5146444 L25.3723849,17.0125523 L27.2008368,11.1297071 L22.1924686,7.31380753 L28.3933054,7.31380753 L30.3807531,1.35146444 L32.3682008,7.31380753 L38.5690377,7.31380753 L33.5606695,11.1297071 L35.5481172,17.0125523 Z" id="Shape" fill="#FF7332" fill-rule="nonzero"></path>
                            <polygon id="Rectangle-path" fill="#FEFEFE" fill-rule="nonzero" points="42 0 59 0 59 17 42 17"></polygon>
                            <path d="M41,0 L41,19 L60,19 L60,0 L41,0 Z M55.4686192,17.0125523 L50.3807531,13.5146444 L45.3723849,17.0125523 L47.2008368,11.1297071 L42.1924686,7.31380753 L48.3933054,7.31380753 L50.3807531,1.35146444 L52.3682008,7.31380753 L58.5690377,7.31380753 L53.5606695,11.1297071 L55.4686192,17.0125523 Z" id="Shape" fill="#FF7332" fill-rule="nonzero"></path>
                            <polygon id="Rectangle-path" fill="#FEFEFE" fill-rule="nonzero" points="63 0 80 0 80 17 63 17"></polygon>
                            <path d="M62,0 L62,19 L81,19 L81,0 L62,0 Z M76.5481172,17.0125523 L71.460251,13.5146444 L66.3723849,17.0125523 L68.2008368,11.1297071 L63.2719665,7.39330544 L69.4728033,7.39330544 L71.460251,1.43096234 L73.4476987,7.39330544 L79.6485356,7.39330544 L74.6401674,11.209205 L76.5481172,17.0125523 Z" id="Shape" fill="#FF7332" fill-rule="nonzero"></path>
                            <polygon id="Rectangle-path" fill="#FEFEFE" fill-rule="nonzero" points="83 0 100 0 100 17 83 17"></polygon>
                            <path d="M82,0 L82,19 L101,19 L101,0 L82,0 Z M96.5481172,17.0125523 L91.460251,13.5146444 L86.3723849,17.0125523 L88.2008368,11.1297071 L83.1924686,7.31380753 L89.3933054,7.31380753 L91.3807531,1.35146444 L93.3682008,7.31380753 L99.5690377,7.31380753 L94.5606695,11.1297071 L96.5481172,17.0125523 Z" id="Shape" fill="#FF7332" fill-rule="nonzero"></path>
                        </g>
                    </g>
                </g>
            </g>
        </g>
    </g>
</svg>