<?xml version="1.0" encoding="UTF-8"?>
<svg width="238px" height="60px" viewBox="0 0 238 60" version="1.1" xmlns="http://www.w3.org/2000/svg" xmlns:xlink="http://www.w3.org/1999/xlink">
    <!-- Generator: sketchtool 53.2 (72643) - https://sketchapp.com -->
    <title>B049A259-3182-4EE2-837E-0B06CCC1F47A</title>
    <desc>Created with sketchtool.</desc>
    <g id="Symbols" stroke="none" stroke-width="1" fill="none" fill-rule="evenodd" opacity="0.303308824">
        <g id="FTR" transform="translate(-1015.000000, -171.000000)" fill="#000000">
            <g transform="translate(0.000000, -3.000000)" id="B2B_Promotion_Logo_blk">
                <g transform="translate(1015.000000, 174.000000)">
                    <g id="B2B_Promotion-Logo_blk">
                        <g id="Group" transform="translate(55.533333, 18.529412)" fill-rule="nonzero">
                            <path d="M0.099382716,19.9985722 L0.099382716,0.74871502 L7.23506173,0.74871502 C8.56679012,0.74871502 9.71962963,0.866933181 10.6538272,1.12307253 C11.5880247,1.37921188 12.3632099,1.71416334 12.9595062,2.16733295 C13.5558025,2.62050257 13.9930864,3.17218732 14.2514815,3.80268418 C14.5297531,4.45288407 14.6490123,5.16219303 14.6490123,5.95031411 C14.6490123,6.3837807 14.5893827,6.79754426 14.4701235,7.1916048 C14.3508642,7.58566533 14.1520988,7.96002284 13.8937037,8.31467733 C13.6353086,8.66933181 13.2775309,8.98458024 12.8601235,9.28012564 C12.442716,9.57567105 11.9458025,9.81210737 11.3495062,10.0288407 C12.6216049,10.3440891 13.575679,10.8366648 14.1918519,11.5262707 C14.8080247,12.2158766 15.1061728,13.1025128 15.1061728,14.1861793 C15.1061728,15.0137065 14.9471605,15.7624215 14.6291358,16.4717304 C14.3111111,17.1810394 13.8340741,17.7918332 13.2179012,18.323815 C12.6017284,18.8557967 11.8464198,19.2498572 10.9320988,19.5454026 C10.0177778,19.840948 8.98419753,19.9788692 7.83135802,19.9788692 L0.099382716,19.9788692 L0.099382716,19.9985722 Z M4.59148148,8.84665905 L6.93691358,8.84665905 C7.43382716,8.84665905 7.89098765,8.807253 8.28851852,8.74814392 C8.68604938,8.66933181 9.02395062,8.55111365 9.30222222,8.37378641 C9.58049383,8.19645917 9.7991358,7.96002284 9.9382716,7.64477441 C10.0774074,7.32952599 10.1569136,6.95516848 10.1569136,6.48229583 C10.1569136,6.02912621 10.097284,5.63506568 9.97802469,5.33952027 C9.85876543,5.04397487 9.67987654,4.78783552 9.44135802,4.61050828 C9.20283951,4.43318104 8.90469136,4.29525985 8.52703704,4.21644774 C8.14938272,4.13763564 7.71209877,4.09822958 7.21518519,4.09822958 L4.57160494,4.09822958 L4.57160494,8.84665905 L4.59148148,8.84665905 Z M4.59148148,11.8218161 L4.59148148,16.6096516 L7.7717284,16.6096516 C8.36802469,16.6096516 8.84506173,16.5308395 9.22271605,16.3929183 C9.60037037,16.2352941 9.89851852,16.0579669 10.1171605,15.8215306 C10.3358025,15.5850942 10.4749383,15.3092519 10.5544444,15.0137065 C10.6339506,14.7181611 10.6737037,14.4029126 10.6737037,14.1073672 C10.6737037,13.7527127 10.6339506,13.4374643 10.5345679,13.1616219 C10.4351852,12.8857796 10.2761728,12.6493432 10.0575309,12.452313 C9.83888889,12.2552827 9.54074074,12.1173615 9.16308642,11.9991433 C8.7854321,11.8809252 8.3282716,11.8415191 7.75185185,11.8415191 L4.59148148,11.8415191 L4.59148148,11.8218161 Z" id="Shape"></path>
                            <path d="M24.0108642,0.531981725 C24.9649383,0.531981725 25.8395062,0.669902913 26.5948148,0.945745288 C27.37,1.22158766 28.0259259,1.6156482 28.5625926,2.10822387 C29.0992593,2.60079954 29.5166667,3.19189035 29.8148148,3.88149629 C30.112963,4.57110223 30.2520988,5.31981725 30.2520988,6.12764135 C30.2520988,6.83695031 30.152716,7.4871502 29.9539506,8.07824101 C29.7551852,8.66933181 29.4769136,9.24071959 29.1390123,9.79240434 C28.8011111,10.3243861 28.3837037,10.8563678 27.9265432,11.3686465 C27.4693827,11.8809252 26.9923457,12.3932039 26.4755556,12.9054826 L22.6592593,16.7475728 C23.1561728,16.6096516 23.6332099,16.4914335 24.1102469,16.4126214 C24.587284,16.3338093 25.0245679,16.2944032 25.4419753,16.2944032 L29.0595062,16.2944032 C29.4967901,16.2944032 29.8545679,16.4126214 30.112963,16.6490577 C30.371358,16.885494 30.4906173,17.2007424 30.4906173,17.614506 L30.4906173,19.9985722 L16.8354321,19.9985722 L16.8354321,18.6784694 C16.8354321,18.4223301 16.8950617,18.1464877 16.9944444,17.8509423 C17.0938272,17.5553969 17.2925926,17.2992576 17.5509877,17.0628212 L23.1561728,11.4671616 C23.6332099,10.994289 24.0506173,10.5411194 24.4083951,10.1076528 C24.7661728,9.67418618 25.064321,9.26042262 25.282963,8.82695603 C25.5214815,8.41319246 25.6804938,7.9994289 25.7997531,7.56596231 C25.9190123,7.15219874 25.978642,6.69902913 25.978642,6.24585951 C25.978642,5.47744146 25.7997531,4.88635066 25.4220988,4.47258709 C25.0444444,4.05882353 24.4879012,3.86179326 23.7325926,3.86179326 C23.4145679,3.86179326 23.1362963,3.90119931 22.8779012,3.99971445 C22.6195062,4.07852656 22.3809877,4.21644774 22.1822222,4.35436893 C21.9834568,4.51199315 21.8045679,4.68932039 21.6654321,4.88635066 C21.5262963,5.08338093 21.407037,5.30011422 21.3076543,5.55625357 C21.1685185,5.95031411 20.9896296,6.24585951 20.7709877,6.42318675 C20.5523457,6.60051399 20.2541975,6.6793261 19.8765432,6.6793261 C19.797037,6.6793261 19.6976543,6.6793261 19.5982716,6.65962307 C19.4988889,6.65962307 19.3995062,6.63992005 19.2802469,6.62021702 L17.0938272,6.24585951 C17.232963,5.28041119 17.5112346,4.45288407 17.9087654,3.7435751 C18.3062963,3.03426613 18.8230864,2.44317533 19.4193827,1.95059966 C20.015679,1.47772701 20.711358,1.12307253 21.4865432,0.886636208 C22.2816049,0.650199886 23.1164198,0.531981725 24.0108642,0.531981725 Z" id="Shape"></path>
                            <path d="M33.0348148,19.9985722 L33.0348148,0.74871502 L40.1704938,0.74871502 C41.5022222,0.74871502 42.6550617,0.866933181 43.5892593,1.12307253 C44.5234568,1.37921188 45.298642,1.71416334 45.8949383,2.16733295 C46.4912346,2.62050257 46.9285185,3.17218732 47.1869136,3.80268418 C47.4651852,4.45288407 47.5844444,5.16219303 47.5844444,5.95031411 C47.5844444,6.3837807 47.5248148,6.79754426 47.4055556,7.1916048 C47.2862963,7.58566533 47.0875309,7.96002284 46.8092593,8.31467733 C46.5508642,8.66933181 46.1930864,8.98458024 45.775679,9.28012564 C45.3582716,9.57567105 44.861358,9.81210737 44.2650617,10.0288407 C45.5371605,10.3440891 46.4912346,10.8366648 47.1074074,11.5262707 C47.7235802,12.2158766 48.0217284,13.1025128 48.0217284,14.1861793 C48.0217284,15.0137065 47.862716,15.7624215 47.5446914,16.4717304 C47.2266667,17.1810394 46.7496296,17.7918332 46.1334568,18.323815 C45.517284,18.8557967 44.7619753,19.2498572 43.8476543,19.5454026 C42.9333333,19.840948 41.8997531,19.9788692 40.7469136,19.9788692 L33.0348148,19.9788692 L33.0348148,19.9985722 Z M37.5467901,8.84665905 L39.8922222,8.84665905 C40.3891358,8.84665905 40.8462963,8.807253 41.2438272,8.74814392 C41.641358,8.66933181 41.9792593,8.55111365 42.2575309,8.37378641 C42.5358025,8.19645917 42.7544444,7.96002284 42.8935802,7.64477441 C43.032716,7.32952599 43.1122222,6.95516848 43.1122222,6.48229583 C43.1122222,6.02912621 43.0525926,5.63506568 42.9333333,5.33952027 C42.8140741,5.04397487 42.6351852,4.78783552 42.3966667,4.61050828 C42.1581481,4.43318104 41.86,4.29525985 41.4823457,4.21644774 C41.1046914,4.13763564 40.6674074,4.09822958 40.1704938,4.09822958 L37.5269136,4.09822958 L37.5269136,8.84665905 L37.5467901,8.84665905 Z M37.5467901,11.8218161 L37.5467901,16.6096516 L40.727037,16.6096516 C41.3233333,16.6096516 41.8003704,16.5308395 42.1780247,16.3929183 C42.555679,16.2352941 42.8538272,16.0579669 43.0724691,15.8215306 C43.2911111,15.5850942 43.4302469,15.3092519 43.5097531,15.0137065 C43.5892593,14.7181611 43.6290123,14.4029126 43.6290123,14.1073672 C43.6290123,13.7527127 43.5892593,13.4374643 43.4898765,13.1616219 C43.3904938,12.8857796 43.2314815,12.6493432 43.0128395,12.452313 C42.7941975,12.2552827 42.4960494,12.1173615 42.1183951,11.9991433 C41.7407407,11.9006282 41.2835802,11.8415191 40.7071605,11.8415191 L37.5467901,11.8415191 L37.5467901,11.8218161 Z" id="Shape"></path>
                            <path d="M58.7550617,13.5556825 L58.7550617,19.9985722 L54.2430864,19.9985722 L54.2430864,0.74871502 L61.1004938,0.74871502 C62.4719753,0.74871502 63.6446914,0.906339235 64.618642,1.22158766 C65.5925926,1.53683609 66.4075309,1.99000571 67.0435802,2.54169046 C67.6796296,3.11307824 68.1566667,3.76327813 68.4548148,4.53169617 C68.752963,5.30011422 68.9119753,6.12764135 68.9119753,7.01427756 C68.9119753,7.97972587 68.752963,8.84665905 68.4548148,9.65448315 C68.1367901,10.4623073 67.6597531,11.1519132 67.0237037,11.723301 C66.3876543,12.2946887 65.572716,12.7478584 64.5987654,13.0631068 C63.6248148,13.3783552 62.4520988,13.5359794 61.1203704,13.5359794 L58.7550617,13.5359794 L58.7550617,13.5556825 Z M58.7550617,10.1864649 L61.1004938,10.1864649 C62.2732099,10.1864649 63.1080247,9.9106225 63.6248148,9.35893775 C64.1416049,8.807253 64.4,8.03883495 64.4,7.03398058 C64.4,6.60051399 64.3403704,6.18675043 64.2012346,5.83209595 C64.0620988,5.47744146 63.8633333,5.16219303 63.5850617,4.90605368 C63.3067901,4.64991433 62.9688889,4.45288407 62.5514815,4.29525985 C62.1340741,4.15733866 61.657037,4.07852656 61.0806173,4.07852656 L58.7351852,4.07852656 L58.7351852,10.1864649 L58.7550617,10.1864649 Z" id="Shape"></path>
                            <path d="M71.2574074,19.9985722 L71.2574074,6.30496859 L73.7022222,6.30496859 C73.9009877,6.30496859 74.0798765,6.32467162 74.2190123,6.36407767 C74.3581481,6.40348372 74.4774074,6.4625928 74.5569136,6.52170188 C74.6562963,6.60051399 74.7159259,6.69902913 74.7755556,6.81724729 C74.8153086,6.93546545 74.8749383,7.09308966 74.8948148,7.2704169 L75.1134568,8.55111365 C75.6103704,7.7826956 76.1867901,7.17190177 76.8228395,6.71873215 C77.4588889,6.26556254 78.1346914,6.04882924 78.89,6.04882924 C79.5260494,6.04882924 80.022963,6.20645346 80.4006173,6.50199886 L79.8639506,9.51656196 C79.8241975,9.69388921 79.7645679,9.83181039 79.6453086,9.9106225 C79.5459259,9.98943461 79.3869136,10.0288407 79.2279012,10.0288407 C79.0688889,10.0288407 78.89,10.0091376 78.6912346,9.96973158 C78.4924691,9.93032553 78.2340741,9.9106225 77.9160494,9.9106225 C76.8228395,9.9106225 75.9880247,10.4820103 75.3519753,11.6247858 L75.3519753,20.0182753 L71.2574074,20.0182753 L71.2574074,19.9985722 Z" id="Shape"></path>
                            <path d="M88.4108642,6.08823529 C89.464321,6.08823529 90.4183951,6.24585951 91.2730864,6.58081097 C92.1277778,6.91576242 92.8830864,7.36893204 93.4992593,7.97972587 C94.1154321,8.5905197 94.5924691,9.3195317 94.9303704,10.1864649 C95.2682716,11.0533981 95.4471605,12.0385494 95.4471605,13.1222159 C95.4471605,14.2058824 95.2682716,15.1910337 94.9303704,16.0776699 C94.5924691,16.9446031 94.1154321,17.6933181 93.4992593,18.3041119 C92.8830864,18.9149058 92.1476543,19.3877784 91.2730864,19.7227299 C90.4183951,20.0576813 89.464321,20.2153055 88.4108642,20.2153055 C87.3574074,20.2153055 86.3834568,20.0576813 85.5287654,19.7227299 C84.6541975,19.3877784 83.9187654,18.9149058 83.282716,18.3041119 C82.6466667,17.6933181 82.1696296,16.9446031 81.8317284,16.0776699 C81.4938272,15.2107367 81.3149383,14.2255854 81.3149383,13.1222159 C81.3149383,12.0385494 81.4938272,11.0731011 81.8317284,10.1864649 C82.1696296,9.3195317 82.6665432,8.5905197 83.282716,7.97972587 C83.8988889,7.36893204 84.6541975,6.89605939 85.5287654,6.58081097 C86.4033333,6.24585951 87.3574074,6.08823529 88.4108642,6.08823529 Z M88.4108642,17.1613364 C89.3649383,17.1613364 90.0606173,16.8263849 90.5177778,16.156482 C90.9749383,15.4865791 91.1935802,14.4817247 91.1935802,13.1222159 C91.1935802,11.762707 90.9749383,10.7578527 90.5177778,10.0879497 C90.0606173,9.41804683 89.3649383,9.1027984 88.4108642,9.1027984 C87.4369136,9.1027984 86.721358,9.43774986 86.2641975,10.0879497 C85.807037,10.7578527 85.5883951,11.762707 85.5883951,13.1222159 C85.5883951,14.4817247 85.807037,15.4865791 86.2641975,16.156482 C86.721358,16.8263849 87.4369136,17.1613364 88.4108642,17.1613364 Z" id="Shape"></path>
                            <path d="M97.7130864,19.9985722 L97.7130864,6.30496859 L100.27716,6.30496859 C100.535556,6.30496859 100.754198,6.36407767 100.933086,6.48229583 C101.111975,6.60051399 101.231235,6.77784123 101.290864,6.99457453 L101.509506,7.74328955 C101.748025,7.50685323 101.986543,7.29011993 102.225062,7.09308966 C102.483457,6.89605939 102.741852,6.71873215 103.04,6.58081097 C103.338148,6.44288978 103.636296,6.32467162 103.974198,6.24585951 C104.312099,6.1670474 104.669877,6.12764135 105.067407,6.12764135 C105.902222,6.12764135 106.597901,6.34437464 107.134568,6.77784123 C107.671235,7.21130782 108.088642,7.7826956 108.38679,8.49200457 C108.625309,8.07824101 108.90358,7.7038835 109.241481,7.40833809 C109.579383,7.11279269 109.93716,6.87635637 110.314815,6.6793261 C110.692469,6.50199886 111.109877,6.36407767 111.54716,6.26556254 C111.984444,6.18675043 112.401852,6.12764135 112.839136,6.12764135 C113.634198,6.12764135 114.329877,6.24585951 114.946049,6.48229583 C115.562222,6.71873215 116.079012,7.05368361 116.476543,7.50685323 C116.893951,7.96002284 117.211975,8.49200457 117.410741,9.14220445 C117.629383,9.79240434 117.728765,10.5214163 117.728765,11.3489435 L117.728765,20.0576813 L113.594444,20.0576813 L113.594444,11.3489435 C113.594444,9.93032553 112.978272,9.22101656 111.745926,9.22101656 C111.189383,9.22101656 110.712346,9.3983438 110.354568,9.77270131 C109.976914,10.1470588 109.798025,10.6593375 109.798025,11.3489435 L109.798025,20.0576813 L105.663704,20.0576813 L105.663704,11.3489435 C105.663704,10.5608224 105.504691,10.0091376 105.206543,9.69388921 C104.888519,9.37864078 104.431358,9.22101656 103.835062,9.22101656 C103.457407,9.22101656 103.09963,9.29982867 102.781605,9.47715591 C102.443704,9.63478013 102.125679,9.87121645 101.847407,10.1470588 L101.847407,20.0576813 L97.7130864,20.0576813 L97.7130864,19.9985722 Z" id="Shape"></path>
                            <path d="M126.812346,6.08823529 C127.865802,6.08823529 128.819877,6.24585951 129.674568,6.58081097 C130.529259,6.91576242 131.284568,7.36893204 131.900741,7.97972587 C132.516914,8.5905197 132.993951,9.3195317 133.331852,10.1864649 C133.669753,11.0533981 133.848642,12.0385494 133.848642,13.1222159 C133.848642,14.2058824 133.669753,15.1910337 133.331852,16.0776699 C132.993951,16.9446031 132.516914,17.6933181 131.900741,18.3041119 C131.284568,18.9149058 130.549136,19.3877784 129.674568,19.7227299 C128.819877,20.0576813 127.865802,20.2153055 126.812346,20.2153055 C125.758889,20.2153055 124.784938,20.0576813 123.930247,19.7227299 C123.055679,19.3877784 122.320247,18.9149058 121.684198,18.3041119 C121.048148,17.6933181 120.571111,16.9446031 120.23321,16.0776699 C119.895309,15.2107367 119.71642,14.2255854 119.71642,13.1222159 C119.71642,12.0385494 119.895309,11.0731011 120.23321,10.1864649 C120.571111,9.3195317 121.068025,8.5905197 121.684198,7.97972587 C122.30037,7.36893204 123.055679,6.89605939 123.930247,6.58081097 C124.804815,6.24585951 125.758889,6.08823529 126.812346,6.08823529 Z M126.812346,17.1613364 C127.76642,17.1613364 128.462099,16.8263849 128.919259,16.156482 C129.37642,15.4865791 129.595062,14.4817247 129.595062,13.1222159 C129.595062,11.762707 129.37642,10.7578527 128.919259,10.0879497 C128.462099,9.41804683 127.76642,9.1027984 126.812346,9.1027984 C125.838395,9.1027984 125.12284,9.43774986 124.665679,10.0879497 C124.208519,10.7578527 123.989877,11.762707 123.989877,13.1222159 C123.989877,14.4817247 124.208519,15.4865791 124.665679,16.156482 C125.12284,16.8263849 125.838395,17.1613364 126.812346,17.1613364 Z" id="Shape"></path>
                            <path d="M140.964444,20.1956025 C140.308519,20.1956025 139.732099,20.0970874 139.235185,19.9197601 C138.738272,19.7227299 138.300988,19.4665905 137.963086,19.111936 C137.625185,18.7572816 137.36679,18.343518 137.187901,17.8509423 C137.009012,17.3583666 136.929506,16.8066819 136.929506,16.1958881 L136.929506,9.12250143 L135.75679,9.12250143 C135.538148,9.12250143 135.359259,9.06339235 135.220123,8.92547116 C135.061111,8.78754997 135.001481,8.5905197 135.001481,8.31467733 L135.001481,6.71873215 L137.207778,6.30496859 L138.022716,2.95545403 C138.122099,2.54169046 138.440123,2.32495717 138.937037,2.32495717 L141.10358,2.32495717 L141.10358,6.32467162 L144.462716,6.32467162 L144.462716,9.12250143 L141.10358,9.12250143 L141.10358,15.9200457 C141.10358,16.2352941 141.183086,16.4914335 141.342099,16.7081668 C141.501111,16.9249001 141.719753,17.0234152 142.017901,17.0234152 C142.176914,17.0234152 142.296173,17.0037122 142.395556,16.9840091 C142.494938,16.9446031 142.594321,16.9249001 142.653951,16.885494 C142.71358,16.8460879 142.793086,16.8066819 142.872593,16.7869789 C142.932222,16.7475728 143.011728,16.7475728 143.111111,16.7475728 C143.23037,16.7475728 143.329753,16.7672758 143.409259,16.8263849 C143.488765,16.885494 143.568272,16.9643061 143.647778,17.1022273 L144.9,19.052827 C144.363333,19.4468875 143.767037,19.7424329 143.091235,19.9394632 C142.375679,20.0970874 141.68,20.1956025 140.964444,20.1956025 Z" id="Shape"></path>
                            <path d="M151.518889,2.54169046 C151.518889,2.87664192 151.459259,3.17218732 151.320123,3.46773272 C151.180988,3.76327813 151.002099,3.99971445 150.783457,4.21644774 C150.544938,4.43318104 150.286543,4.61050828 149.968519,4.72872644 C149.67037,4.8469446 149.332469,4.92575671 148.994568,4.92575671 C148.656667,4.92575671 148.338642,4.86664763 148.040494,4.72872644 C147.742346,4.61050828 147.483951,4.43318104 147.265309,4.21644774 C147.046667,3.99971445 146.867778,3.7435751 146.728642,3.46773272 C146.609383,3.17218732 146.529877,2.87664192 146.529877,2.54169046 C146.529877,2.20673901 146.589506,1.89149058 146.728642,1.59594517 C146.847901,1.30039977 147.02679,1.04426042 147.265309,0.827527127 C147.483951,0.610793832 147.742346,0.433466591 148.040494,0.315248429 C148.338642,0.197030268 148.656667,0.137921188 148.994568,0.137921188 C149.332469,0.137921188 149.67037,0.197030268 149.968519,0.315248429 C150.266667,0.433466591 150.544938,0.610793832 150.783457,0.827527127 C151.021975,1.04426042 151.200864,1.30039977 151.320123,1.59594517 C151.459259,1.89149058 151.518889,2.20673901 151.518889,2.54169046 Z M151.041852,6.28526556 L151.041852,19.9788692 L146.907531,19.9788692 L146.907531,6.28526556 L151.041852,6.28526556 Z" id="Shape"></path>
                            <path d="M160.522963,6.08823529 C161.57642,6.08823529 162.530494,6.24585951 163.385185,6.58081097 C164.239877,6.91576242 164.995185,7.36893204 165.611358,7.97972587 C166.227531,8.5905197 166.704568,9.3195317 167.042469,10.1864649 C167.38037,11.0533981 167.559259,12.0385494 167.559259,13.1222159 C167.559259,14.2058824 167.38037,15.1910337 167.042469,16.0776699 C166.704568,16.9446031 166.227531,17.6933181 165.611358,18.3041119 C164.995185,18.9149058 164.259753,19.3877784 163.385185,19.7227299 C162.530494,20.0576813 161.57642,20.2153055 160.522963,20.2153055 C159.469506,20.2153055 158.495556,20.0576813 157.640864,19.7227299 C156.766296,19.3877784 156.030864,18.9149058 155.394815,18.3041119 C154.758765,17.6933181 154.281728,16.9446031 153.943827,16.0776699 C153.605926,15.2107367 153.427037,14.2255854 153.427037,13.1222159 C153.427037,12.0385494 153.605926,11.0731011 153.943827,10.1864649 C154.281728,9.3195317 154.778642,8.5905197 155.394815,7.97972587 C156.010988,7.36893204 156.766296,6.89605939 157.640864,6.58081097 C158.515432,6.24585951 159.469506,6.08823529 160.522963,6.08823529 Z M160.522963,17.1613364 C161.477037,17.1613364 162.172716,16.8263849 162.629877,16.156482 C163.087037,15.4865791 163.305679,14.4817247 163.305679,13.1222159 C163.305679,11.762707 163.087037,10.7578527 162.629877,10.0879497 C162.172716,9.41804683 161.477037,9.1027984 160.522963,9.1027984 C159.549012,9.1027984 158.833457,9.43774986 158.376296,10.0879497 C157.919136,10.7578527 157.700494,11.762707 157.700494,13.1222159 C157.700494,14.4817247 157.919136,15.4865791 158.376296,16.156482 C158.833457,16.8263849 159.549012,17.1613364 160.522963,17.1613364 Z" id="Shape"></path>
                            <path d="M169.825185,19.9985722 L169.825185,6.30496859 L172.389259,6.30496859 C172.647654,6.30496859 172.866296,6.36407767 173.045185,6.48229583 C173.224074,6.60051399 173.343333,6.77784123 173.402963,6.99457453 L173.641481,7.7826956 C173.899877,7.52655625 174.178148,7.30982296 174.476296,7.09308966 C174.754568,6.87635637 175.072593,6.69902913 175.390617,6.56110794 C175.708642,6.42318675 176.06642,6.30496859 176.444074,6.22615648 C176.821728,6.14734437 177.239136,6.10793832 177.67642,6.10793832 C178.431728,6.10793832 179.107531,6.24585951 179.683951,6.50199886 C180.26037,6.75813821 180.757284,7.13249572 181.154815,7.58566533 C181.552346,8.03883495 181.850494,8.5905197 182.069136,9.24071959 C182.267901,9.87121645 182.367284,10.5805254 182.367284,11.3292404 L182.367284,20.0379783 L178.232963,20.0379783 L178.232963,11.3292404 C178.232963,10.6593375 178.073951,10.1470588 177.775802,9.77270131 C177.457778,9.3983438 177.000617,9.22101656 176.404321,9.22101656 C175.94716,9.22101656 175.529753,9.3195317 175.132222,9.51656196 C174.734691,9.71359223 174.357037,9.96973158 173.979383,10.304683 L173.979383,20.0576813 L169.825185,20.0576813 L169.825185,19.9985722 Z" id="Shape"></path>
                        </g>
                        <path d="M20.0682412,7.12125302 C12.4127361,9.16660819 7.05185185,16.0646688 7.05185185,23.9051969 L7.05185185,36.4380105 C7.05185185,39.9672508 8.12808997,43.376176 10.1384216,46.2837888 C13.4280551,50.9961267 18.8498584,53.8235294 24.6371767,53.8235294 C25.6321893,53.8235294 26.4444444,53.0214293 26.4444444,52.0388568 C26.4444444,51.0562842 25.6321893,50.2541841 24.6371767,50.2541841 C20.0276285,50.2541841 15.722676,48.0083039 13.103153,44.2584861 C11.498949,41.9524484 10.6460811,39.2453607 10.6460811,36.4380105 L10.6460811,23.9051969 C10.6460811,17.6688689 14.8901144,12.1945359 20.9820283,10.5702833 C21.9567345,10.3096008 22.5253132,9.32702821 22.2613302,8.38456063 C22.0176537,7.44209305 21.0226411,6.8605705 20.0682412,7.12125302 Z" id="XMLID_34_" fill-rule="nonzero"></path>
                        <path d="M27.6856408,7.09633366 C26.7323005,6.89631253 25.7988215,7.51637803 25.6002089,8.47647945 C25.4015964,9.43658087 26.0172953,10.3766802 26.9706356,10.5767013 C33.2865148,11.8768386 37.8943261,17.5574387 37.8943261,24.0781275 L37.8943261,36.5794481 C37.8943261,42.3000524 34.3193001,47.4805996 29.0163449,49.4808109 C28.1027271,49.8208469 27.626057,50.8609567 27.9835596,51.7810539 C28.2417559,52.50113 28.9170386,52.9411765 29.6320438,52.9411765 C29.8306564,52.9411765 30.0491302,52.9011722 30.2477427,52.8211638 C33.5049887,51.6010349 36.2855644,49.4408067 38.2915513,46.5605024 C40.3571218,43.6201919 41.4296296,40.1798284 41.4296296,36.5794481 L41.4296296,24.0781275 C41.4296296,20.0577028 40.0393417,16.1372887 37.497101,13.0569633 C34.9945828,9.99664003 31.5188631,7.89641818 27.6856408,7.09633366 Z" id="XMLID_32_" fill-rule="nonzero"></path>
                        <path d="M37.5904922,50.7168263 C33.8215767,54.3980848 28.8687087,56.4387825 23.6198526,56.4387825 C12.5301641,56.4387825 3.51239244,47.2956566 3.51239244,36.0518126 L3.51239244,27.368844 C3.51239244,26.3885089 2.72309077,25.5882353 1.75619622,25.5882353 C0.789301673,25.5882353 0,26.3885089 0,27.368844 L0,36.0518126 C0,49.2563269 10.596375,60 23.6198526,60 C29.7764056,60 35.5975054,57.619186 40.0175948,53.2777018 C40.7082338,52.5974692 40.7279663,51.4570793 40.0570599,50.7568399 C39.405886,50.0566005 38.3008637,50.0365937 37.5904922,50.7168263 Z" id="XMLID_30_" fill-rule="nonzero"></path>
                        <path d="M23.9252339,0 C19.4911692,0 15.1560791,1.23448293 11.414837,3.58398269 C7.77256957,5.87374942 4.80332979,9.09933384 2.84363154,12.9222487 C2.38834811,13.7983334 2.74465688,14.8536172 3.59583895,15.3115705 C4.46681595,15.7695239 5.53574227,15.4111256 5.97123077,14.5549519 C9.45513877,7.76529584 16.3239801,3.54416066 23.905439,3.54416066 C35.0301907,3.54416066 44.0764745,12.6434945 44.0764745,23.8334849 L44.0764745,35.939382 C44.0764745,39.1450554 43.3440621,42.2113517 41.918827,45.0586269 C41.4833385,45.9347115 41.8396472,47.0099063 42.6908293,47.4479487 C42.9481634,47.5873258 43.2252925,47.6470588 43.4826266,47.6470588 C44.1358593,47.6470588 44.7495022,47.2886606 45.0662211,46.6714191 C46.7487903,43.3263686 47.5999724,39.7224749 47.5999724,35.959293 L47.5999724,23.8533959 C47.6197673,10.692215 36.9898889,0 23.9252339,0 Z" id="XMLID_28_" fill-rule="nonzero"></path>
                        <path d="M34.3777778,25.511509 L34.3777778,23.6898771 L34.3777778,22.8780629 L34.3377104,22.8780629 C33.9170034,17.4923686 29.3493266,13.2352941 23.8,13.2352941 C17.970202,13.2352941 13.2222222,17.9279762 13.2222222,23.6898771 L13.2222222,25.7887138 L13.2222222,26.3035228 L13.2222222,39.7083574 C13.2222222,40.6785744 14.023569,41.4705882 15.0052189,41.4705882 C15.9868687,41.4705882 16.7882155,40.6785744 16.7882155,39.7083574 L16.7882155,26.3035228 L16.7882155,25.7887138 L16.7882155,23.6700767 C16.7882155,19.8486099 19.9335017,16.7597558 23.7799663,16.7597558 C27.6464646,16.7597558 30.7717172,19.8684102 30.7717172,23.6700767 L30.7717172,25.4917086 L30.7717172,25.4917086 L30.7717172,25.4917086 C30.7717172,29.3131755 27.626431,32.4020295 23.7799663,32.4020295 C22.1772727,32.4020295 20.7148148,31.8674202 19.5328283,30.9764046 L19.5328283,35.055276 C20.8350168,35.629486 22.2774411,35.9462916 23.7799663,35.9462916 C26.4644781,35.9462916 28.9085859,34.9562742 30.7717172,33.3128455 C32.9954545,31.4120122 34.3777778,28.6201634 34.3777778,25.511509 L34.3777778,25.511509 Z" id="XMLID_26_" fill-rule="nonzero"></path>
                        <path d="M25.562963,29.0429253 L25.562963,24.5580286 L25.562963,22.1399046 L25.562963,21.2511924 C25.562963,20.2384738 24.7706201,19.4117647 23.8,19.4117647 C22.8293799,19.4117647 22.037037,20.2384738 22.037037,21.2511924 L22.037037,22.1399046 L22.037037,24.5580286 L22.037037,29.0429253 C22.037037,30.0556439 22.8293799,30.8823529 23.8,30.8823529 C24.7706201,30.8823529 25.562963,30.0556439 25.562963,29.0429253 Z" id="XMLID_24_" fill-rule="nonzero"></path>
                        <path d="M30.8295204,38.4555769 C30.04195,41.673736 27.2349682,43.9223215 23.9837159,43.9223215 C23.0345926,43.9223215 22.1258574,43.7366585 21.2777047,43.3653324 L21.2777047,43.4891078 C21.1969282,43.4478493 21.1161518,43.4272201 21.0151812,43.3859616 C20.1064461,42.9940064 19.0361581,43.4272201 18.6524699,44.3555352 C18.2687817,45.2838503 18.6928581,46.3771992 19.6015932,46.7691545 C21.8835281,47.7593573 24.3674041,47.9037619 26.669533,47.2436267 C30.3852499,46.2534239 33.3537846,43.2828155 34.3231021,39.3426336 C34.5654314,38.3524308 33.9798021,37.362228 33.0104847,37.1146773 C32.0411672,36.8671266 31.0718498,37.4653741 30.8295204,38.4555769 Z" id="XMLID_22_" fill-rule="nonzero"></path>
                    </g>
                </g>
            </g>
        </g>
    </g>
</svg>