<?xml version="1.0" encoding="UTF-8"?>
<svg width="20px" height="24px" viewBox="0 0 20 24" version="1.1" xmlns="http://www.w3.org/2000/svg" xmlns:xlink="http://www.w3.org/1999/xlink">
    <!-- Generator: sketchtool 53.2 (72643) - https://sketchapp.com -->
    <title>5830C9AC-24E4-4276-82D6-986948502188</title>
    <desc>Created with sketchtool.</desc>
    <g id="Symbols" stroke="none" stroke-width="1" fill="none" fill-rule="evenodd">
        <g id="GUARANTEES" transform="translate(-477.000000, -75.000000)" fill="#FFFFFF">
            <g id="icon_coin">
                <g transform="translate(477.000000, 75.000000)">
                    <g id="Shape">
                        <path d="M10,9 C15.3,9 20,7 20,4.5 C20,2 15.3,0 10,0 C4.7,0 0,2 0,4.5 C0,7 4.7,9 10,9 Z M10,21 C13.8,21 17.7,20 20,18.2 L20,19.5 C20,22 15.3,24 10,24 C4.7,24 0,22 0,19.5 L0,18.2 C2.3,20 6.2,21 10,21 Z M10,11 C13.8,11 17.7,10 20,8.2 L20,9.5 C20,12 15.3,14 10,14 C4.7,14 0,12 0,9.5 L0,8.2 C2.3,10 6.2,11 10,11 Z M10,16 C13.8,16 17.7,15 20,13.2 L20,14.5 C20,17 15.3,19 10,19 C4.7,19 0,17 0,14.5 L0,13.2 C2.3,15 6.2,16 10,16 Z" fill-rule="nonzero"></path>
                    </g>
                </g>
            </g>
        </g>
    </g>
</svg>