<?xml version="1.0" encoding="UTF-8"?>
<svg width="24px" height="20px" viewBox="0 0 24 20" version="1.1" xmlns="http://www.w3.org/2000/svg" xmlns:xlink="http://www.w3.org/1999/xlink">
    <!-- Generator: sketchtool 53.2 (72643) - https://sketchapp.com -->
    <title>15535CF6-53BD-4720-A4F3-05D50103517F</title>
    <desc>Created with sketchtool.</desc>
    <g id="Symbols" stroke="none" stroke-width="1" fill="none" fill-rule="evenodd">
        <g id="GUARANTEES" transform="translate(-1041.000000, -79.000000)" fill="#FFFFFF">
            <g id="icon_checkbox">
                <g transform="translate(1041.000000, 79.000000)">
                    <g id="Shape">
                        <path d="M5.5,8.1 L7.1,6.6 C9,7.5 10.1,8.2 12.2,9.7 C16.1,5.2 18.7,3 23.5,0 L24,1.2 C20,4.7 17.1,8.5 12.9,16 C10.4,13 8.6,11 5.5,8.1 Z M18,11.4 L18,18 L2,18 L2,2 L17.1,2 C17.9,1.3 18.8,0.7 19.8,0 L0,0 L0,20 L20,20 L20,8.5 C19.3,9.4 18.7,10.3 18,11.4 Z" fill-rule="nonzero"></path>
                    </g>
                </g>
            </g>
        </g>
    </g>
</svg>