<?xml version="1.0" encoding="UTF-8"?>
<svg width="23px" height="22px" viewBox="0 0 23 22" version="1.1" xmlns="http://www.w3.org/2000/svg" xmlns:xlink="http://www.w3.org/1999/xlink">
    <!-- Generator: sketchtool 53.2 (72643) - https://sketchapp.com -->
    <title>8EBD82D1-8725-4020-B8F3-372E5C325CB6</title>
    <desc>Created with sketchtool.</desc>
    <g id="Symbols" stroke="none" stroke-width="1" fill="none" fill-rule="evenodd">
        <g id="FTR" transform="translate(-730.000000, -372.000000)" fill="#FF7332">
            <g transform="translate(0.000000, -3.000000)" id="icon_linkedin">
                <g transform="translate(730.000000, 375.000000)">
                    <g id="Shape">
                        <path d="M5.9,3 C5.9,4.4 4.7,5.6 3.3,5.6 C1.9,5.6 0.6,4.4 0.6,3 C0.6,1.6 1.8,0.4 3.2,0.4 C4.6,0.4 5.9,1.5 5.9,3 Z M5.6,21.4 L0.9,21.4 L0.9,8.1 L5.6,8.1 L5.6,21.4 L5.6,21.4 Z" fill-rule="nonzero"></path>
                        <path d="M13.4,9.8 L13.4,9.8 C14.5,8.2 15.9,7.7 17.7,7.7 C21.3,7.7 22.7,10 22.7,13.2 L22.7,21.4 L18,21.4 L18,14.9 C18,13.6 18.2,11.4 15.9,11.4 C14,11.4 13.4,12.8 13.4,14.5 L13.4,21.4 L8.7,21.4 L8.7,8.1 L13.4,8.1 L13.4,9.8 Z" fill-rule="nonzero"></path>
                    </g>
                </g>
            </g>
        </g>
    </g>
</svg>