<?xml version="1.0" encoding="UTF-8"?>
<svg width="12px" height="24px" viewBox="0 0 12 24" version="1.1" xmlns="http://www.w3.org/2000/svg" xmlns:xlink="http://www.w3.org/1999/xlink">
    <!-- Generator: sketchtool 53.2 (72643) - https://sketchapp.com -->
    <title>0AFE3C35-1463-4A9A-8398-2907F783108B</title>
    <desc>Created with sketchtool.</desc>
    <g id="Symbols" stroke="none" stroke-width="1" fill="none" fill-rule="evenodd">
        <g id="FTR" transform="translate(-734.000000, -308.000000)" fill="#FF7332">
            <g transform="translate(0.000000, -3.000000)" id="icon_facebook">
                <g transform="translate(734.000000, 311.000000)">
                    <g id="Shape">
                        <path d="M2.8,23.4 L2.8,11.8 L0.4,11.8 L0.4,8.2 L2.9,8.2 L2.9,7.1 L2.9,6 L2.9,5.8 C2.9,4.7 2.9,3.1 3.7,2.1 C4.5,1 5.6,0.3 7.5,0.3 C10.6,0.3 11.9,0.7 11.9,0.7 L11.3,4.4 C11.3,4.4 10.3,4.1 9.3,4.1 C8.3,4.1 7.5,4.4 7.5,5.4 L7.5,5.8 L7.5,7.1 L7.5,8.2 L11.4,8.2 L11.1,11.8 L7.4,11.8 L7.4,23.4 L2.8,23.4 Z" fill-rule="nonzero"></path>
                    </g>
                </g>
            </g>
        </g>
    </g>
</svg>