<svg xmlns="http://www.w3.org/2000/svg" width="24" height="18" viewBox="0 0 24 18">
    <path fill="#FFF" fill-rule="nonzero" d="M5 15H4c-.6 0-1-.4-1-1v-2h12V3h4.7c1.1 0 1.6.6 1.9 1.1.6.9 1.5 2.4 2.1 3.4.2.3.3.7.3 1V13c0 1.1-.7 2-2 2h-1c0 1.7-1.3 3-3 3s-3-1.3-3-3h-4c0 1.7-1.3 3-3 3s-3-1.3-3-3zm3-1.2c.7 0 1.2.5 1.2 1.2s-.5 1.2-1.2 1.2-1.2-.5-1.2-1.2.5-1.2 1.2-1.2zm10 0c.7 0 1.2.5 1.2 1.2s-.5 1.2-1.2 1.2-1.2-.5-1.2-1.2.5-1.2 1.2-1.2zM8 5H0V3h8V2H3V1c0-.6.4-1 1-1h9c.6 0 1 .4 1 1v10H3V8H1V6h7V5zm9 0v3h4.7l-1.4-2.5c-.2-.3-.5-.5-.9-.5H17z"/>
</svg>
