<?xml version="1.0" encoding="UTF-8"?>
<svg width="24px" height="18px" viewBox="0 0 24 18" version="1.1" xmlns="http://www.w3.org/2000/svg" xmlns:xlink="http://www.w3.org/1999/xlink">
    <!-- Generator: sketchtool 53.2 (72643) - https://sketchapp.com -->
    <title>638C824E-B0D5-483B-B206-91728687D94D</title>
    <desc>Created with sketchtool.</desc>
    <g id="Symbols" stroke="none" stroke-width="1" fill="none" fill-rule="evenodd">
        <g id="HDR" transform="translate(-960.000000, -7.000000)" fill="#FF7332">
            <g transform="translate(0.000000, 5.000000)" id="icon_cart">
                <g transform="translate(960.000000, 2.000000)">
                    <g id="Shape">
                        <path d="M10,16.5 C10,17.3 9.3,18 8.5,18 C7.7,18 7,17.3 7,16.5 C7,15.7 7.7,15 8.5,15 C9.3,15 10,15.7 10,16.5 Z M13.5,15 C12.7,15 12,15.7 12,16.5 C12,17.3 12.7,18 13.5,18 C14.3,18 15,17.3 15,16.5 C15,15.7 14.3,15 13.5,15 Z M14.8,10 L16.8,3 L0,3 L2.9,10 C2.9,10 14.8,10 14.8,10 Z M19.8,0 L16.4,12 L3.8,12 L4.6,14 L17.8,14 L21.3,2 L23.2,2 L24,0 L19.8,0 Z" fill-rule="nonzero"></path>
                    </g>
                </g>
            </g>
        </g>
    </g>
</svg>