<?xml version="1.0" encoding="UTF-8"?>
<svg width="21px" height="21px" viewBox="0 0 21 21" version="1.1" xmlns="http://www.w3.org/2000/svg" xmlns:xlink="http://www.w3.org/1999/xlink">
    <!-- Generator: sketchtool 53.2 (72643) - https://sketchapp.com -->
    <title>BC4F019F-2582-4B4B-84AE-190E6607A087</title>
    <desc>Created with sketchtool.</desc>
    <g id="Symbols" stroke="none" stroke-width="1" fill="none" fill-rule="evenodd">
        <g id="FTR" transform="translate(-730.000000, -278.000000)" fill="#FF7332" fill-rule="nonzero">
            <g transform="translate(0.000000, -3.000000)" id="icon_globe">
                <g transform="translate(730.000000, 281.000000)">
                    <path d="M10.5,0 C4.725,0 0,4.725 0,10.5 C0,16.275 4.725,21 10.5,21 C16.275,21 21,16.275 21,10.5 C21,4.725 16.275,0 10.5,0 Z M19.25,10.5 C19.25,11.1125 19.1625,11.725 19.075,12.25 L15.6625,12.25 C15.75,11.1125 15.75,9.975 15.6625,8.75 L19.075,8.75 C19.1625,9.275 19.25,9.8875 19.25,10.5 Z M18.55,7 L15.4875,7 C15.1375,5.25 14.525,3.675 13.825,2.3625 C15.8375,3.2375 17.5875,4.9 18.55,7 Z M13.65,7 L11.375,7 L11.375,2.0125 C12.425,3.325 13.2125,5.075 13.65,7 Z M9.625,2.0125 L9.625,7 L7.35,7 C7.7875,5.075 8.575,3.325 9.625,2.0125 Z M9.625,8.75 L9.625,12.25 L7.0875,12.25 C7,11.025 7,9.975 7.0875,8.75 L9.625,8.75 Z M9.625,14 L9.625,18.9875 C8.575,17.675 7.7875,16.0125 7.35,14 L9.625,14 Z M11.375,18.9875 L11.375,14 L13.65,14 C13.2125,15.925 12.425,17.675 11.375,18.9875 Z M11.375,12.25 L11.375,8.75 L13.9125,8.75 C14,9.975 14,11.025 13.9125,12.25 L11.375,12.25 Z M7.2625,2.3625 C6.475,3.675 5.8625,5.25 5.5125,7 L2.45,7 C3.4125,4.9 5.1625,3.2375 7.2625,2.3625 Z M1.925,8.75 L5.3375,8.75 C5.25,9.8875 5.25,11.025 5.3375,12.25 L1.925,12.25 C1.8375,11.725 1.75,11.1125 1.75,10.5 C1.75,9.8875 1.8375,9.275 1.925,8.75 Z M2.45,14 L5.5125,14 C5.8625,15.75 6.475,17.325 7.175,18.6375 C5.1625,17.7625 3.4125,16.1 2.45,14 Z M13.7375,18.6375 C14.525,17.325 15.1375,15.75 15.4,14 L18.4625,14 C17.5875,16.1 15.8375,17.7625 13.7375,18.6375 Z" id="Shape"></path>
                </g>
            </g>
        </g>
    </g>
</svg>