<svg xmlns="http://www.w3.org/2000/svg" width="20" height="20" viewBox="0 0 20 20">
    <g fill="#FF7332" fill-rule="evenodd">
        <path fill-rule="nonzero" d="M4.062.009h.233c.113.027.142.098.142.191v.085c0 .569-.005 1.143-.005 1.712 0 .627 0 1.254-.005 1.881 0 .174-.005.347.005.516.005.103.049.152.16.152.157 0 .313-.01.469-.018.087-.01.146-.058.16-.143a.898.898 0 0 0 .02-.16c.005-.2.005-.4.005-.596V.213c0-.12 0-.177.15-.213h9.075c.02 0 .044.004.064.004.54 0 1.082.005 1.618.005a3.988 3.988 0 0 1 2.9 1.263c.448.476.745 1.019.867 1.637.063.329.073.667.078 1 .005.65 0 1.304-.005 1.953 0 .102-.03.13-.141.13h-.068c-1.989 0-3.972 0-5.96.004a.49.49 0 0 1-.332-.116 4.844 4.844 0 0 0-.858-.596c-1.106-.605-2.295-.818-3.562-.605a5.276 5.276 0 0 0-2.583 1.2.484.484 0 0 1-.337.121H.158c-.122 0-.151-.027-.151-.138 0-.164.005-.329.005-.49-.005-.689-.035-1.378.024-2.067.034-.418.141-.823.331-1.201.293-.578.746-1.032 1.292-1.415l.03-.013v.022c0 1.09 0 2.18-.006 3.265 0 .151-.005.302.005.454.005.102.054.146.16.146.152 0 .303-.004.45-.022.097-.009.146-.062.16-.156.01-.057.015-.115.015-.173V.52c0-.026 0-.053-.005-.08-.02-.124-.01-.138.112-.19.122-.054.244-.099.375-.108.098-.004.122.018.107.103a.607.607 0 0 0-.01.093v4.07c0 .102.045.15.157.15.146.005.287 0 .433-.008.132-.009.19-.062.21-.187a1.46 1.46 0 0 0 .015-.209c.004-.654.004-1.307.004-1.957 0-.65-.004-1.294-.01-1.943.01-.178.03-.2.2-.245zm10.736 3.087c0 .338-.005.68 0 1.018.01.33.263.552.629.552h2.11c.375 0 .638-.236.638-.579.005-.658.005-1.316 0-1.974 0-.343-.253-.579-.628-.583-.712-.004-1.419-.004-2.13 0-.37.004-.614.218-.624.556-.005.338.005.672.005 1.01z"/>
        <path d="M5.825 7c-.775 1.162-1.107 2.417-.877 3.8.2 1.206.74 2.226 1.662 3.036 1.847 1.613 4.499 1.72 6.439.25 1.102-.834 1.765-1.947 1.979-3.315.215-1.368-.112-2.619-.887-3.771H19.74c.035 0 .069 0 .108.005.083.01.132.054.141.137.01.113.01.23.01.348 0 .834-.005 1.672-.005 2.506 0 2.04 0 4.075-.005 6.115-.005 1-.365 1.868-1.033 2.604a3.803 3.803 0 0 1-2.179 1.216c-.22.039-.444.063-.663.063-4.065.005-8.126.01-12.191 0-1.838-.005-3.359-1.23-3.797-2.99a4.347 4.347 0 0 1-.122-1.065v-5.703C.005 9.266 0 8.29 0 7.32c0-.044.005-.089.005-.128.014-.122.063-.176.19-.181.127-.005.258-.005.385-.005 1.72 0 3.441.005 5.167.005.02-.01.044-.01.078-.01z"/>
        <path d="M10.015 6A3.995 3.995 0 0 1 14 10.01 3.983 3.983 0 0 1 9.99 14 3.995 3.995 0 0 1 6 9.995C6.005 7.792 7.807 6 10.015 6zm2.943 4.05c.01-1.64-1.264-3.02-2.983-2.996-1.63.025-2.948 1.382-2.898 3 .049 1.634 1.363 2.946 3.022 2.901 1.565-.044 2.879-1.366 2.859-2.906z"/>
    </g>
</svg>
