<svg xmlns="http://www.w3.org/2000/svg" width="22" height="23" viewBox="0 0 22 23">
    <path fill="#FF7332" fill-rule="evenodd" d="M21.835 9.573c-.03-.222-.145-.24-.326-.234-3.334.006-6.668.006-10.003-.007-.265 0-.307.093-.307.334.012 1.254.006 2.515.006 3.77 0 .407 0 .407.386.407 1.809 0 3.618.006 5.426-.006.302 0 .326.093.254.346-.109.365-.217.723-.38 1.069-.404.865-1.02 1.545-1.755 2.12-.928.58-1.917.957-3.009 1.075-2.345.247-4.299-.52-5.878-2.311-.622-.705-1.038-1.533-1.375-2.404-.44-1.502-.465-3.003.03-4.498.398-1.119 1.007-2.095 1.863-2.91 2.49-2.374 6.32-2.398 8.665-.199.168.161.235.038.331-.055.929-.952 1.857-1.91 2.798-2.855.18-.185.139-.272-.024-.42C15.86.44 12.779-.393 9.33.169c-2.46.408-4.54 1.588-6.253 3.43-.76.815-1.405 1.717-1.863 2.749 1.17.92 2.34 1.847 3.509 2.768-1.17-.92-2.34-1.847-3.51-2.768-.053.105-.12.21-.168.321-.917 2.027-1.224 4.146-.947 6.346.163 1.273.507 2.496 1.104 3.627a10.608 10.608 0 0 0 2.972 3.794c3.07 2.484 6.53 3.096 10.28 2.126a9.267 9.267 0 0 0 4.203-2.354c.706-.612 1.267-1.354 1.73-2.157 1.532-2.632 1.864-5.487 1.448-8.478z"/>
</svg>
