<?xml version="1.0" encoding="UTF-8"?>
<svg width="24px" height="20px" viewBox="0 0 24 20" version="1.1" xmlns="http://www.w3.org/2000/svg" xmlns:xlink="http://www.w3.org/1999/xlink">
    <!-- Generator: sketchtool 53.2 (72643) - https://sketchapp.com -->
    <title>DBDFA3D1-EBE2-4C9F-9111-DC4E966035D9</title>
    <desc>Created with sketchtool.</desc>
    <g id="Symbols" stroke="none" stroke-width="1" fill="none" fill-rule="evenodd">
        <g id="FTR" transform="translate(-730.000000, -344.000000)" fill="#FF7332">
            <g transform="translate(0.000000, -3.000000)" id="icon_twitter">
                <g transform="translate(730.000000, 347.000000)">
                    <g id="Shape">
                        <path d="M1.8,1.6 C1.8,1.6 5.2,6.4 11.6,6.5 C11.6,6.5 11.1,2.3 14.7,1.1 C14.7,1.1 17.8,-0.2 19.9,2.2 C19.9,2.2 22.3,1.8 22.8,1.1 C22.8,1.1 22.7,2.6 21,3.7 C21,3.7 22.5,3.7 23.6,3.1 C23.6,3.1 22.1,5 21.4,5.3 C21.4,5.3 21.4,5.3 21.4,5.3 C20.8,5.5 22.1,9.8 18.1,14.9 C18.1,14.9 15.1,19 9.5,19.8 C7.2,20.1 3.9,20.4 0.5,17.8 C0.5,17.8 3.9,18.2 7.4,15.7 C7.4,15.7 3.9,15.4 3,12.5 C3,12.5 4.6,12.5 5,12.5 C5,12.5 1.2,11.2 1.3,7.6 C1.3,7.6 2.6,8.2 3.3,8.1 C3.1,7.9 0,5.5 1.8,1.6 Z" fill-rule="nonzero"></path>
                    </g>
                </g>
            </g>
        </g>
    </g>
</svg>