<svg xmlns="http://www.w3.org/2000/svg" width="21" height="16" viewBox="0 0 21 16">
    <path fill="#FF7332" fill-rule="nonzero" d="M4.375 13.333H3.5c-.525 0-.875-.355-.875-.889v-1.777h10.5v-8h4.113c.962 0 1.4.533 1.662.977.525.8 1.313 2.134 1.838 3.023.175.266.262.622.262.889v4c0 .977-.613 1.777-1.75 1.777h-.875c0 1.511-1.137 2.667-2.625 2.667s-2.625-1.156-2.625-2.667h-3.5C9.625 14.844 8.488 16 7 16c-1.487 0-2.625-1.156-2.625-2.667zM7 12.267c.612 0 1.05.444 1.05 1.066 0 .623-.438 1.067-1.05 1.067-.612 0-1.05-.444-1.05-1.067 0-.622.438-1.066 1.05-1.066zm8.75 0c.613 0 1.05.444 1.05 1.066 0 .623-.438 1.067-1.05 1.067-.613 0-1.05-.444-1.05-1.067 0-.622.438-1.066 1.05-1.066zM7 4.444H0V2.667h7v-.89H2.625V.89c0-.533.35-.889.875-.889h7.875c.525 0 .875.356.875.889v8.889H2.625V7.11H.875V5.333H7v-.889zm7.875 0v2.667h4.113L17.762 4.89c-.175-.267-.437-.445-.787-.445h-2.1z"/>
</svg>
